<?xml version="1.0" encoding="UTF-8" standalone="no"?>
<!DOCTYPE svg PUBLIC "-//W3C//DTD SVG 1.1//EN"
 "http://www.w3.org/Graphics/SVG/1.1/DTD/svg11.dtd">
<!-- Generated by graphviz version 12.2.1 (0)
 -->
<!-- Title: G Pages: 1 -->
<svg width="429pt" height="288pt"
 viewBox="0.00 0.00 429.23 288.00" xmlns="http://www.w3.org/2000/svg" xmlns:xlink="http://www.w3.org/1999/xlink">
<g id="graph0" class="graph" transform="scale(0.692724 0.692724) rotate(0) translate(4 411.75)">
<title>G</title>
<polygon fill="white" stroke="none" points="-4,4 -4,-411.75 615.62,-411.75 615.62,4 -4,4"/>
<g id="clust1" class="cluster">
<title>cluster_0</title>
<polygon fill="#000000" fill-opacity="0.058824" stroke="#000000" stroke-opacity="0.058824" points="17.99,-8 17.99,-314.5 593.64,-314.5 593.64,-8 17.99,-8"/>
<text text-anchor="middle" x="305.81" y="-297.2" font-family="Times,serif" font-size="14.00">Todou</text>
</g>
<g id="clust2" class="cluster">
<title>cluster_1</title>
<polygon fill="#000000" fill-opacity="0.058824" stroke="#000000" stroke-opacity="0.058824" points="357.53,-16 357.53,-165.25 550.91,-165.25 550.91,-16 357.53,-16"/>
<text text-anchor="middle" x="454.22" y="-147.95" font-family="Times,serif" font-size="14.00">Domain</text>
</g>
<g id="clust3" class="cluster">
<title>cluster_2</title>
<polygon fill="#000000" fill-opacity="0.058824" stroke="#000000" stroke-opacity="0.058824" points="141.66,-322.5 141.66,-399.75 339.54,-399.75 339.54,-322.5 141.66,-322.5"/>
<text text-anchor="middle" x="240.6" y="-382.45" font-family="Times,serif" font-size="14.00">app</text>
</g>
<!-- u2 -->
<g id="node1" class="node">
<title>u2</title>
<ellipse fill="#ffffbb" stroke="black" stroke-width="0" cx="241" cy="-263" rx="36.48" ry="18"/>
<text text-anchor="middle" x="241" y="-258.32" font-family="Times,serif" font-size="14.00">Main</text>
</g>
<!-- u3 -->
<g id="node2" class="node">
<title>u3</title>
<ellipse fill="#ffffbb" stroke="black" stroke-width="0" cx="169" cy="-42" rx="44.89" ry="18"/>
<text text-anchor="middle" x="169" y="-37.33" font-family="Times,serif" font-size="14.00">Option</text>
</g>
<!-- u2&#45;&gt;u3 -->
<g id="edge3" class="edge">
<title>u2&#45;&gt;u3</title>
<path fill="none" stroke="black" d="M215.6,-250.21C186.56,-235.15 140.51,-206.05 121,-165.25 107.72,-137.48 109.93,-124.72 121,-96 125.35,-84.71 133.35,-74.33 141.59,-65.8"/>
<polygon fill="black" stroke="black" points="143.9,-68.44 148.69,-58.98 139.05,-63.39 143.9,-68.44"/>
</g>
<!-- u4 -->
<g id="node3" class="node">
<title>u4</title>
<ellipse fill="#ffffbb" stroke="black" stroke-width="0" cx="313" cy="-191" rx="44.89" ry="18"/>
<text text-anchor="middle" x="313" y="-186.32" font-family="Times,serif" font-size="14.00">Server</text>
</g>
<!-- u2&#45;&gt;u4 -->
<g id="edge4" class="edge">
<title>u2&#45;&gt;u4</title>
<path fill="none" stroke="black" d="M256.62,-246.81C266.02,-237.67 278.18,-225.85 288.8,-215.52"/>
<polygon fill="black" stroke="black" points="291.09,-218.18 295.82,-208.7 286.21,-213.16 291.09,-218.18"/>
</g>
<!-- u5 -->
<g id="node4" class="node">
<title>u5</title>
<ellipse fill="#ffffbb" stroke="black" stroke-width="0" cx="169" cy="-114" rx="38.58" ry="18"/>
<text text-anchor="middle" x="169" y="-109.33" font-family="Times,serif" font-size="14.00">Store</text>
</g>
<!-- u2&#45;&gt;u5 -->
<g id="edge5" class="edge">
<title>u2&#45;&gt;u5</title>
<path fill="none" stroke="black" d="M233.02,-245.71C220.69,-220.54 196.9,-171.96 182.05,-141.63"/>
<polygon fill="black" stroke="black" points="185.22,-140.17 177.68,-132.73 178.94,-143.25 185.22,-140.17"/>
</g>
<!-- u1 -->
<g id="node6" class="node">
<title>u1</title>
<ellipse fill="#bbbbff" stroke="black" stroke-width="0" cx="454" cy="-42" rx="34.9" ry="18"/>
<text text-anchor="middle" x="454" y="-37.33" font-family="Times,serif" font-size="14.00">Todo</text>
</g>
<!-- u2&#45;&gt;u1 -->
<g id="edge2" class="edge">
<title>u2&#45;&gt;u1</title>
<path fill="none" stroke="black" d="M277.09,-260.71C335.44,-256.44 449.1,-238.6 500,-165.25 517.55,-139.96 510.77,-124.83 500,-96 495.72,-84.53 487.71,-73.9 479.56,-65.21"/>
<polygon fill="black" stroke="black" points="482.13,-62.84 472.57,-58.28 477.2,-67.81 482.13,-62.84"/>
</g>
<!-- u4&#45;&gt;u3 -->
<g id="edge8" class="edge">
<title>u4&#45;&gt;u3</title>
<path fill="none" stroke="black" d="M297.59,-174.27C272.26,-148.41 221.67,-96.77 192.06,-66.54"/>
<polygon fill="black" stroke="black" points="194.86,-64.39 185.36,-59.7 189.86,-69.29 194.86,-64.39"/>
</g>
<!-- u4&#45;&gt;u5 -->
<g id="edge9" class="edge">
<title>u4&#45;&gt;u5</title>
<path fill="none" stroke="black" d="M286.92,-176.42C263.56,-164.25 229.12,-146.31 203.49,-132.96"/>
<polygon fill="black" stroke="black" points="205.27,-129.95 194.79,-128.43 202.04,-136.15 205.27,-129.95"/>
</g>
<!-- u0 -->
<g id="node5" class="node">
<title>u0</title>
<ellipse fill="#bbbbff" stroke="black" stroke-width="0" cx="459" cy="-114" rx="32.27" ry="18"/>
<text text-anchor="middle" x="459" y="-109.33" font-family="Times,serif" font-size="14.00">Stat</text>
</g>
<!-- u4&#45;&gt;u0 -->
<g id="edge6" class="edge">
<title>u4&#45;&gt;u0</title>
<path fill="none" stroke="black" d="M356.84,-187.41C378.24,-184.42 403.5,-178.17 423,-165.25 432.23,-159.13 439.87,-149.79 445.7,-140.8"/>
<polygon fill="black" stroke="black" points="448.64,-142.7 450.73,-132.31 442.62,-139.13 448.64,-142.7"/>
</g>
<!-- u4&#45;&gt;u1 -->
<g id="edge7" class="edge">
<title>u4&#45;&gt;u1</title>
<path fill="none" stroke="black" d="M328.09,-174.27C352.92,-148.38 402.52,-96.67 431.5,-66.45"/>
<polygon fill="black" stroke="black" points="434,-68.91 438.39,-59.27 428.95,-64.06 434,-68.91"/>
</g>
<!-- u5&#45;&gt;u3 -->
<g id="edge11" class="edge">
<title>u5&#45;&gt;u3</title>
<path fill="none" stroke="black" d="M169,-96.05C169,-88.57 169,-79.58 169,-71.14"/>
<polygon fill="black" stroke="black" points="172.5,-71.3 169,-61.3 165.5,-71.3 172.5,-71.3"/>
</g>
<!-- u5&#45;&gt;u1 -->
<g id="edge10" class="edge">
<title>u5&#45;&gt;u1</title>
<path fill="none" stroke="black" d="M204.61,-107.61C252.98,-99.79 341.81,-83.58 415,-60 416.34,-59.57 417.71,-59.1 419.07,-58.62"/>
<polygon fill="black" stroke="black" points="420.07,-61.99 428.12,-55.1 417.53,-55.46 420.07,-61.99"/>
</g>
<!-- u0&#45;&gt;u1 -->
<g id="edge1" class="edge">
<title>u0&#45;&gt;u1</title>
<path fill="none" stroke="black" d="M457.79,-96.05C457.26,-88.57 456.61,-79.58 456.01,-71.14"/>
<polygon fill="black" stroke="black" points="459.51,-71.02 455.31,-61.3 452.53,-71.52 459.51,-71.02"/>
</g>
<!-- u6 -->
<g id="node7" class="node">
<title>u6</title>
<ellipse fill="#ffbbbb" stroke="black" stroke-width="0" cx="241" cy="-349" rx="36.48" ry="18"/>
<text text-anchor="middle" x="241" y="-344.32" font-family="Times,serif" font-size="14.00">Main</text>
</g>
<!-- u6&#45;&gt;u2 -->
<g id="edge12" class="edge">
<title>u6&#45;&gt;u2</title>
<path fill="none" stroke="black" d="M241,-331C241,-319.84 241,-304.98 241,-292.09"/>
<polygon fill="black" stroke="black" points="244.5,-292.49 241,-282.49 237.5,-292.49 244.5,-292.49"/>
</g>
</g>
</svg>
