<?xml version="1.0" encoding="UTF-8" standalone="no"?>
<!DOCTYPE svg PUBLIC "-//W3C//DTD SVG 1.1//EN"
 "http://www.w3.org/Graphics/SVG/1.1/DTD/svg11.dtd">
<!-- Generated by graphviz version 12.2.1 (0)
 -->
<!-- Title: G Pages: 1 -->
<svg width="429pt" height="288pt"
 viewBox="0.00 0.00 429.15 288.00" xmlns="http://www.w3.org/2000/svg" xmlns:xlink="http://www.w3.org/1999/xlink">
<g id="graph0" class="graph" transform="scale(0.71199 0.71199) rotate(0) translate(4 400.5)">
<title>G</title>
<polygon fill="white" stroke="none" points="-4,4 -4,-400.5 598.75,-400.5 598.75,4 -4,4"/>
<g id="clust1" class="cluster">
<title>cluster_0</title>
<polygon fill="#000000" fill-opacity="0.058824" stroke="#000000" stroke-opacity="0.058824" points="19.82,-8 19.82,-307 574.92,-307 574.92,-8 19.82,-8"/>
<text text-anchor="middle" x="297.38" y="-289.7" font-family="Times,serif" font-size="14.00">Todou</text>
</g>
<g id="clust2" class="cluster">
<title>cluster_1</title>
<polygon fill="#000000" fill-opacity="0.058824" stroke="#000000" stroke-opacity="0.058824" points="351.89,-16 351.89,-161.5 525.36,-161.5 525.36,-16 351.89,-16"/>
<text text-anchor="middle" x="438.63" y="-144.2" font-family="Times,serif" font-size="14.00">Domain</text>
</g>
<g id="clust3" class="cluster">
<title>cluster_2</title>
<polygon fill="#000000" fill-opacity="0.058824" stroke="#000000" stroke-opacity="0.058824" points="131.34,-315 131.34,-388.5 309.77,-388.5 309.77,-315 131.34,-315"/>
<text text-anchor="middle" x="220.55" y="-371.2" font-family="Times,serif" font-size="14.00">app</text>
</g>
<!-- u2 -->
<g id="node1" class="node">
<title>u2</title>
<ellipse fill="#ffffbb" stroke="black" stroke-width="0" cx="221" cy="-260" rx="28.21" ry="18"/>
<text text-anchor="middle" x="221" y="-253.45" font-family="Times,serif" font-size="14.00">Main</text>
</g>
<!-- u3 -->
<g id="node2" class="node">
<title>u3</title>
<ellipse fill="#ffffbb" stroke="black" stroke-width="0" cx="159" cy="-42" rx="33.35" ry="18"/>
<text text-anchor="middle" x="159" y="-35.45" font-family="Times,serif" font-size="14.00">Option</text>
</g>
<!-- u2&#45;&gt;u3 -->
<g id="edge3" class="edge">
<title>u2&#45;&gt;u3</title>
<path fill="none" stroke="black" d="M201.61,-247.04C177.66,-230.99 138.12,-200 122,-161.5 110.76,-134.65 113.27,-123.77 122,-96 125.28,-85.58 131.41,-75.42 137.76,-66.83"/>
<polygon fill="black" stroke="black" points="140.46,-69.06 143.93,-59.05 134.97,-64.71 140.46,-69.06"/>
</g>
<!-- u4 -->
<g id="node3" class="node">
<title>u4</title>
<ellipse fill="#ffffbb" stroke="black" stroke-width="0" cx="285" cy="-188" rx="31.95" ry="18"/>
<text text-anchor="middle" x="285" y="-181.45" font-family="Times,serif" font-size="14.00">Server</text>
</g>
<!-- u2&#45;&gt;u4 -->
<g id="edge4" class="edge">
<title>u2&#45;&gt;u4</title>
<path fill="none" stroke="black" d="M234.26,-244.5C242.73,-235.24 253.9,-223.02 263.6,-212.41"/>
<polygon fill="black" stroke="black" points="266.13,-214.83 270.29,-205.09 260.96,-210.1 266.13,-214.83"/>
</g>
<!-- u5 -->
<g id="node4" class="node">
<title>u5</title>
<ellipse fill="#ffffbb" stroke="black" stroke-width="0" cx="159" cy="-114" rx="27.74" ry="18"/>
<text text-anchor="middle" x="159" y="-107.45" font-family="Times,serif" font-size="14.00">Store</text>
</g>
<!-- u2&#45;&gt;u5 -->
<g id="edge5" class="edge">
<title>u2&#45;&gt;u5</title>
<path fill="none" stroke="black" d="M214.01,-242.76C203.45,-218.24 183.32,-171.48 170.56,-141.84"/>
<polygon fill="black" stroke="black" points="173.83,-140.59 166.66,-132.79 167.4,-143.36 173.83,-140.59"/>
</g>
<!-- u1 -->
<g id="node6" class="node">
<title>u1</title>
<ellipse fill="#bbbbff" stroke="black" stroke-width="0" cx="439" cy="-42" rx="27.27" ry="18"/>
<text text-anchor="middle" x="439" y="-35.45" font-family="Times,serif" font-size="14.00">Todo</text>
</g>
<!-- u2&#45;&gt;u1 -->
<g id="edge2" class="edge">
<title>u2&#45;&gt;u1</title>
<path fill="none" stroke="black" d="M248.92,-257.93C303.38,-254.16 422.96,-237.21 475,-161.5 491.49,-137.51 483.56,-123.83 475,-96 471.77,-85.49 465.67,-75.2 459.4,-66.52"/>
<polygon fill="black" stroke="black" points="462.21,-64.44 453.31,-58.68 456.68,-68.73 462.21,-64.44"/>
</g>
<!-- u4&#45;&gt;u3 -->
<g id="edge8" class="edge">
<title>u4&#45;&gt;u3</title>
<path fill="none" stroke="black" d="M271.75,-171.86C249.88,-146.86 206.04,-96.76 179.94,-66.93"/>
<polygon fill="black" stroke="black" points="182.66,-64.73 173.44,-59.51 177.4,-69.34 182.66,-64.73"/>
</g>
<!-- u4&#45;&gt;u5 -->
<g id="edge9" class="edge">
<title>u4&#45;&gt;u5</title>
<path fill="none" stroke="black" d="M263.63,-174.79C243.05,-163.03 211.74,-145.14 188.73,-131.99"/>
<polygon fill="black" stroke="black" points="190.55,-129 180.13,-127.07 187.08,-135.07 190.55,-129"/>
</g>
<!-- u0 -->
<g id="node5" class="node">
<title>u0</title>
<ellipse fill="#bbbbff" stroke="black" stroke-width="0" cx="439" cy="-114" rx="27" ry="18"/>
<text text-anchor="middle" x="439" y="-107.45" font-family="Times,serif" font-size="14.00">Stat</text>
</g>
<!-- u4&#45;&gt;u0 -->
<g id="edge6" class="edge">
<title>u4&#45;&gt;u0</title>
<path fill="none" stroke="black" d="M316.85,-186.92C343.32,-185.41 380.88,-179.8 408,-161.5 415.61,-156.37 421.82,-148.68 426.64,-141.03"/>
<polygon fill="black" stroke="black" points="429.57,-142.96 431.42,-132.53 423.47,-139.53 429.57,-142.96"/>
</g>
<!-- u4&#45;&gt;u1 -->
<g id="edge7" class="edge">
<title>u4&#45;&gt;u1</title>
<path fill="none" stroke="black" d="M300.61,-172.4C327.87,-146.91 384.26,-94.19 416,-64.51"/>
<polygon fill="black" stroke="black" points="418.23,-67.21 423.15,-57.82 413.45,-62.1 418.23,-67.21"/>
</g>
<!-- u5&#45;&gt;u3 -->
<g id="edge11" class="edge">
<title>u5&#45;&gt;u3</title>
<path fill="none" stroke="black" d="M159,-96.05C159,-88.57 159,-79.58 159,-71.14"/>
<polygon fill="black" stroke="black" points="162.5,-71.3 159,-61.3 155.5,-71.3 162.5,-71.3"/>
</g>
<!-- u5&#45;&gt;u1 -->
<g id="edge10" class="edge">
<title>u5&#45;&gt;u1</title>
<path fill="none" stroke="black" d="M185.89,-109.89C232.33,-103.95 330.11,-88.93 408,-60 408.49,-59.82 408.98,-59.63 409.47,-59.44"/>
<polygon fill="black" stroke="black" points="410.75,-62.7 418.36,-55.32 407.81,-56.35 410.75,-62.7"/>
</g>
<!-- u0&#45;&gt;u1 -->
<g id="edge1" class="edge">
<title>u0&#45;&gt;u1</title>
<path fill="none" stroke="black" d="M439,-96.05C439,-88.57 439,-79.58 439,-71.14"/>
<polygon fill="black" stroke="black" points="442.5,-71.3 439,-61.3 435.5,-71.3 442.5,-71.3"/>
</g>
<!-- u6 -->
<g id="node7" class="node">
<title>u6</title>
<ellipse fill="#ffbbbb" stroke="black" stroke-width="0" cx="221" cy="-341" rx="28.21" ry="18"/>
<text text-anchor="middle" x="221" y="-334.45" font-family="Times,serif" font-size="14.00">Main</text>
</g>
<!-- u6&#45;&gt;u2 -->
<g id="edge12" class="edge">
<title>u6&#45;&gt;u2</title>
<path fill="none" stroke="black" d="M221,-323.25C221,-313.3 221,-300.42 221,-288.97"/>
<polygon fill="black" stroke="black" points="224.5,-289.24 221,-279.24 217.5,-289.24 224.5,-289.24"/>
</g>
</g>
</svg>
